# xmcd
# 
# Track frame offsets:
#     150
#     25750
#     31662
#     42902
#     53450
#     66110
#     76402
#     90377
#     101612
#     111837
#     127667
#     150192
#     167432
#     178987
#     201512
#     220342
# 
# Disc length: 3165
# 
# Revision: 2
# Processed by: cddbd v1.5.2PL0 Copyright (c) Steve Scherf et al.
# Submitted via: BonkEnc v1.0
# 
DISCID=c00c5b10
DTITLE=CLAPTON Eric - She's So Respectable
DYEAR=1994
DGENRE=blues
TTITLE0=She's So Respectable
TTITLE1=Choker
TTITLE2=Shake Drive
TTITLE3=Got To Hurry
TTITLE4=Freight Loader
TTITLE5=A Certain Girl
TTITLE6=Dragging My Tail
TTITLE7=For Your Love
TTITLE8=I Wish You Would
TTITLE9=Louise
TTITLE10=Five Long Years
TTITLE11=Early In The Morning
TTITLE12=Pounds And Stomps
TTITLE13=The First Time I Met The Blues
TTITLE14=Stormy Monday Blues
TTITLE15=Big Boss Man
EXTD=
EXTT0=
EXTT1=
EXTT2=
EXTT3=
EXTT4=
EXTT5=
EXTT6=
EXTT7=
EXTT8=
EXTT9=
EXTT10=
EXTT11=
EXTT12=
EXTT13=
EXTT14=
EXTT15=
PLAYORDER=
